<?xml version="1.0" standalone="no"?>
<!DOCTYPE svg PUBLIC "-//W3C//DTD SVG 20010904//EN"
 "http://www.w3.org/TR/2001/REC-SVG-20010904/DTD/svg10.dtd">
<svg version="1.0" xmlns="http://www.w3.org/2000/svg"
 width="300.000000pt" height="300.000000pt" viewBox="0 0 300.000000 300.000000"
 preserveAspectRatio="xMidYMid meet">
<metadata>
Created by potrace 1.10, written by Peter Selinger 2001-2011
</metadata>
<g transform="translate(0.000000,300.000000) scale(0.100000,-0.100000)"
fill="#000000" stroke="none">
<path d="M1010 2233 c0 -10 -6 -13 -16 -9 -9 3 -39 9 -68 12 -65 8 -118 -13
-146 -58 -40 -63 -10 -204 75 -352 27 -48 39 -78 32 -80 -24 -7 -122 -38 -134
-42 -7 -3 -21 9 -32 27 l-20 32 -12 -26 c-7 -15 -15 -27 -18 -27 -3 0 -15 -7
-26 -16 -16 -12 -17 -17 -7 -23 10 -6 1 -16 -32 -35 -88 -52 -122 -137 -79
-202 40 -61 145 -119 299 -164 l72 -21 -43 -77 c-78 -137 -109 -268 -82 -334
22 -53 59 -73 132 -72 33 1 79 8 103 17 30 10 42 11 39 3 -3 -8 13 -11 53 -11
52 0 57 2 49 17 -17 31 -9 48 34 69 62 32 173 105 249 166 l68 54 57 -48 c66
-53 197 -140 261 -172 42 -21 50 -38 33 -69 -8 -15 -3 -17 49 -17 40 0 56 3
53 11 -3 8 9 7 39 -3 24 -9 71 -16 105 -17 74 -1 111 21 131 80 24 70 -13 208
-93 345 l-33 57 59 19 c55 18 60 18 74 3 8 -9 15 -22 15 -28 0 -21 16 -13 28
13 7 14 23 30 37 37 17 7 22 15 16 22 -7 8 8 21 46 41 147 77 149 201 6 288
-46 28 -197 86 -270 103 -9 2 -1 23 22 61 49 81 94 203 101 271 10 108 -49
168 -157 158 -31 -3 -63 -8 -72 -12 -11 -4 -17 -1 -17 9 0 12 -6 14 -27 8 -16
-4 -40 -5 -54 -1 -26 7 -27 7 -22 -30 5 -33 2 -38 -18 -43 -34 -9 -226 -132
-304 -195 l-66 -52 -67 54 c-78 63 -266 183 -301 193 -20 5 -23 10 -18 43 5
37 4 38 -22 31 -14 -4 -38 -4 -53 0 -22 6 -28 4 -28 -8z m-27 -24 c37 -10 39
-12 33 -44 -6 -33 -6 -33 21 -26 15 4 41 4 56 0 23 -7 28 -5 23 6 -3 8 -3 15
-1 15 7 0 186 -110 224 -138 99 -72 141 -105 141 -111 0 -4 -24 -28 -53 -53
l-54 -46 -130 -11 c-119 -10 -271 -33 -313 -46 -13 -4 -28 17 -67 92 -28 54
-58 122 -67 152 -18 62 -21 143 -6 171 24 45 110 62 193 39z m1187 -4 c39 -20
50 -43 50 -104 0 -64 -29 -150 -88 -264 -35 -67 -50 -86 -62 -82 -42 13 -195
36 -313 46 l-131 11 -53 45 c-29 25 -53 49 -53 53 0 18 339 250 365 250 2 0 2
-6 -1 -14 -5 -12 0 -13 23 -7 15 4 41 4 56 0 27 -8 28 -7 21 26 -6 32 -4 34
27 44 52 14 127 13 159 -4z m-617 -350 l49 -45 -102 0 -102 0 49 45 c26 24 50
44 53 44 3 0 27 -20 53 -44z m-293 -160 c-52 -52 -90 -95 -85 -95 6 0 53 43
105 95 l95 95 125 0 125 0 95 -95 c52 -52 99 -95 105 -95 5 0 -33 43 -85 95
l-95 95 35 0 c89 0 390 -44 390 -57 0 -3 -20 -34 -45 -70 -25 -36 -40 -63 -33
-61 7 2 31 32 53 65 22 34 48 62 57 62 22 1 193 -56 241 -81 52 -26 112 -82
127 -118 10 -24 10 -36 0 -60 -15 -36 -75 -92 -130 -120 l-40 -20 -19 31 -19
31 -16 -30 c-9 -17 -25 -34 -37 -37 -11 -4 -18 -13 -16 -20 4 -8 -13 -17 -51
-26 -33 -8 -57 -9 -59 -4 -7 22 -85 125 -95 125 -5 0 11 -29 36 -64 25 -36 46
-67 46 -70 0 -12 -303 -56 -390 -56 l-35 0 95 95 c52 52 90 95 85 95 -5 0 -53
-43 -106 -96 l-96 -96 -123 0 -122 0 -97 96 c-53 53 -101 96 -106 96 -5 0 33
-43 85 -95 l95 -95 -35 0 c-89 0 -390 44 -390 57 0 3 20 34 45 70 25 36 40 63
33 61 -7 -2 -33 -33 -57 -70 l-44 -65 -101 32 c-243 76 -333 168 -261 265 25
33 100 90 121 90 6 0 16 -12 23 -27 l12 -26 19 30 c10 17 28 34 40 38 15 5 18
10 11 19 -7 9 8 16 61 30 82 21 69 27 135 -68 18 -25 37 -46 42 -46 6 0 -10
29 -34 64 -25 35 -45 66 -45 69 0 13 268 53 375 56 l50 1 -95 -95z m-231 -470
c47 -9 144 -20 216 -26 l130 -11 52 -45 c29 -25 53 -49 53 -53 0 -22 -319
-236 -330 -222 -3 4 -28 7 -57 8 l-51 1 5 -33 c5 -32 4 -33 -48 -48 -186 -56
-260 30 -194 223 35 104 106 233 123 226 8 -3 53 -12 101 -20z m1103 -62 c152
-288 100 -436 -131 -367 -52 15 -53 16 -48 48 l5 33 -51 -1 c-29 -1 -55 -4
-58 -9 -11 -14 -329 201 -329 223 0 4 24 28 53 52 l52 45 131 12 c125 11 304
38 313 47 10 10 19 -1 63 -83z m-577 -18 c-28 -24 -52 -44 -55 -44 -3 0 -27
20 -55 44 l-49 45 104 0 104 0 -49 -45z"/>
<path d="M777 1566 c-20 -30 -10 -42 16 -19 19 18 19 17 12 -14 -5 -25 -3 -33
8 -33 10 0 14 12 13 45 -1 52 -23 61 -49 21z"/>
<path d="M850 1576 c-28 -35 11 -93 48 -70 35 22 22 84 -18 84 -10 0 -23 -7
-30 -14z"/>
<path d="M939 1569 c-16 -31 3 -69 35 -69 23 0 46 24 46 49 0 16 -30 41 -50
41 -11 0 -24 -10 -31 -21z"/>
<path d="M1150 1545 c0 -25 5 -45 10 -45 6 0 10 6 10 14 0 8 10 16 22 18 26 3
37 36 16 49 -7 5 -23 9 -35 9 -21 0 -23 -5 -23 -45z"/>
<path d="M1230 1546 c0 -25 5 -46 10 -46 6 0 10 7 10 15 0 8 9 15 20 15 13 0
18 -5 14 -15 -4 -9 0 -15 10 -15 16 0 22 21 9 34 -4 4 -8 17 -8 29 0 17 -7 23
-32 25 -33 3 -33 3 -33 -42z"/>
<path d="M1332 1578 c-7 -7 -12 -21 -12 -33 0 -12 5 -26 12 -33 7 -7 21 -12
33 -12 12 0 26 5 33 12 7 7 12 21 12 33 0 12 -5 26 -12 33 -7 7 -21 12 -33 12
-12 0 -26 -5 -33 -12z m56 -31 c4 -20 -25 -34 -40 -19 -15 15 -1 44 19 40 10
-2 19 -11 21 -21z"/>
<path d="M1430 1580 c0 -5 7 -10 15 -10 23 0 19 -41 -5 -47 -28 -7 -25 -23 5
-23 20 0 25 6 31 34 3 19 3 39 -1 45 -8 14 -45 14 -45 1z"/>
<path d="M1490 1545 c0 -43 1 -45 30 -45 17 0 30 5 30 10 0 6 -9 10 -20 10
-11 0 -20 5 -20 11 0 6 7 9 15 6 8 -4 17 -2 20 3 4 6 -3 10 -14 10 -12 0 -21
5 -21 10 0 6 9 10 20 10 11 0 20 5 20 10 0 6 -13 10 -30 10 -29 0 -30 -2 -30
-45z"/>
<path d="M1576 1574 c-19 -18 -20 -28 -6 -55 13 -24 68 -26 77 -4 7 20 -6 33
-16 16 -9 -14 -43 -12 -48 4 -1 6 2 17 7 25 8 13 13 13 31 2 25 -16 37 -8 19
13 -16 19 -44 19 -64 -1z"/>
<path d="M1660 1580 c0 -5 7 -10 15 -10 10 0 15 -11 15 -35 0 -19 5 -35 10
-35 6 0 10 16 10 35 0 24 5 35 15 35 8 0 15 5 15 10 0 6 -18 10 -40 10 -22 0
-40 -4 -40 -10z"/>
<path d="M1757 1583 c-15 -14 -6 -30 26 -46 l32 -18 -33 6 c-24 3 -32 1 -29
-8 2 -6 19 -12 38 -12 46 0 50 26 7 48 l-33 17 35 -6 c31 -6 33 -5 21 10 -13
16 -52 22 -64 9z"/>
<path d="M1870 1544 l0 -45 38 3 c34 3 37 6 40 37 4 38 -9 51 -50 51 -27 0
-28 -2 -28 -46z m60 1 c0 -18 -5 -25 -20 -25 -15 0 -20 7 -20 25 0 18 5 25 20
25 15 0 20 -7 20 -25z"/>
<path d="M1982 1578 c-7 -7 -12 -21 -12 -33 0 -44 60 -63 80 -26 24 45 -33 94
-68 59z m50 -20 c8 -21 -2 -38 -23 -38 -19 0 -27 29 -12 43 11 11 31 8 35 -5z"/>
<path d="M2070 1545 c0 -54 19 -61 21 -7 l2 37 10 -37 c8 -30 15 -38 34 -38
21 0 23 5 23 45 0 25 -4 45 -10 45 -5 0 -10 -16 -10 -36 0 -41 -15 -38 -23 6
-5 21 -12 30 -27 30 -17 0 -20 -6 -20 -45z"/>
<path d="M2170 1545 c0 -45 0 -45 35 -45 19 0 35 5 35 10 0 6 -11 10 -25 10
-14 0 -25 5 -25 11 0 6 9 8 20 4 11 -4 20 -2 20 4 0 6 -9 11 -20 11 -11 0 -20
5 -20 10 0 6 11 10 25 10 14 0 25 5 25 10 0 6 -16 10 -35 10 -35 0 -35 0 -35
-45z"/>
<path d="M1050 1556 c0 -8 -6 -17 -12 -19 -10 -4 -10 -6 0 -6 6 -1 12 -8 12
-16 0 -8 5 -15 10 -15 6 0 10 5 10 10 0 6 7 10 15 10 8 0 15 5 15 10 0 6 -7
10 -15 10 -8 0 -15 7 -15 15 0 8 -4 15 -10 15 -5 0 -10 -6 -10 -14z"/>
</g>
</svg>
